<svg data-v-423bf9ae="" xmlns="http://www.w3.org/2000/svg" viewBox="0 0 577 107" class="iconLeft"><!----><!----><!----><g data-v-423bf9ae="" id="95fc0e7f-5c46-4db7-9e4e-fd94c2825d1b" fill="#000000" transform="matrix(5.535055160522461,0,0,5.535055160522461,122.84393310546875,24.044889450073242)"><path d="M5.43 10.50L0.91 10.50L0.91 1.34L5.43 1.34L5.43 1.34Q6.44 1.34 7.25 1.69L7.25 1.69L7.25 1.69Q8.06 2.04 8.63 2.65L8.63 2.65L8.63 2.65Q9.20 3.26 9.51 4.10L9.51 4.10L9.51 4.10Q9.81 4.94 9.81 5.92L9.81 5.92L9.81 5.92Q9.81 6.92 9.51 7.75L9.51 7.75L9.51 7.75Q9.20 8.58 8.63 9.20L8.63 9.20L8.63 9.20Q8.06 9.81 7.25 10.16L7.25 10.16L7.25 10.16Q6.44 10.50 5.43 10.50L5.43 10.50ZM3.53 3.29L3.53 8.57L4.54 8.57L4.54 8.57Q5.78 8.57 6.45 7.90L6.45 7.90L6.45 7.90Q7.13 7.22 7.13 5.92L7.13 5.92L7.13 5.92Q7.13 4.62 6.45 3.96L6.45 3.96L6.45 3.96Q5.78 3.29 4.54 3.29L4.54 3.29L3.53 3.29ZM14.34 10.65L14.34 10.65L14.34 10.65Q13.78 10.65 13.22 10.54L13.22 10.54L13.22 10.54Q12.67 10.43 12.23 10.08L12.23 10.08L12.23 10.08Q11.79 9.73 11.51 9.09L11.51 9.09L11.51 9.09Q11.23 8.44 11.23 7.36L11.23 7.36L11.23 3.22L13.57 3.22L13.57 6.52L13.57 6.52Q13.57 7.56 13.90 8.10L13.90 8.10L13.90 8.10Q14.24 8.64 14.87 8.64L14.87 8.64L14.87 8.64Q15.32 8.64 15.62 8.44L15.62 8.44L15.62 8.44Q15.93 8.25 16.12 7.90L16.12 7.90L16.12 7.90Q16.31 7.56 16.39 7.08L16.39 7.08L16.39 7.08Q16.48 6.61 16.48 6.05L16.48 6.05L16.48 3.22L19.00 3.22L19.00 10.50L17.11 10.50L16.69 9.13L16.69 9.13Q16.69 9.13 16.56 9.37L16.56 9.37L16.56 9.37Q16.44 9.60 16.16 9.89L16.16 9.89L16.16 9.89Q15.88 10.18 15.43 10.42L15.43 10.42L15.43 10.42Q14.98 10.65 14.34 10.65ZM23.95 3.05L23.95 3.05L23.95 3.05Q24.39 3.05 24.82 3.10L24.82 3.10L24.82 3.10Q25.26 3.15 25.62 3.21L25.62 3.21L25.62 3.21Q26.04 3.28 26.43 3.36L26.43 3.36L26.43 5.31L26.43 5.31Q26.12 5.26 25.73 5.19L25.73 5.19L25.73 5.19Q25.34 5.12 24.94 5.10L24.94 5.10L24.94 5.10Q24.54 5.07 24.16 5.11L24.16 5.11L24.16 5.11Q23.79 5.15 23.49 5.35L23.49 5.35L23.49 5.35Q23.20 5.54 23.02 5.91L23.02 5.91L23.02 5.91Q22.83 6.27 22.83 6.89L22.83 6.89L22.83 6.89Q22.83 7.53 23.01 7.92L23.01 7.92L23.01 7.92Q23.18 8.32 23.47 8.52L23.47 8.52L23.47 8.52Q23.76 8.72 24.14 8.77L24.14 8.77L24.14 8.77Q24.51 8.82 24.91 8.79L24.91 8.79L24.91 8.79Q25.31 8.75 25.70 8.66L25.70 8.66L25.70 8.66Q26.10 8.57 26.43 8.50L26.43 8.50L26.43 10.30L26.43 10.30Q26.04 10.42 25.62 10.49L25.62 10.49L25.62 10.49Q25.26 10.56 24.82 10.61L24.82 10.61L24.82 10.61Q24.37 10.65 23.94 10.65L23.94 10.65L23.94 10.65Q23.39 10.65 22.74 10.49L22.74 10.49L22.74 10.49Q22.08 10.32 21.51 9.90L21.51 9.90L21.51 9.90Q20.94 9.48 20.57 8.75L20.57 8.75L20.57 8.75Q20.19 8.02 20.19 6.89L20.19 6.89L20.19 6.89Q20.19 5.75 20.57 5.02L20.57 5.02L20.57 5.02Q20.94 4.28 21.51 3.84L21.51 3.84L21.51 3.84Q22.08 3.40 22.74 3.23L22.74 3.23L22.74 3.23Q23.39 3.05 23.95 3.05ZM35.08 3.22L32.51 6.99L32.51 6.99Q32.80 7.39 33.14 7.84L33.14 7.84L33.14 7.84Q33.47 8.29 33.82 8.75L33.82 8.75L33.82 8.75Q34.16 9.21 34.49 9.66L34.49 9.66L34.49 9.66Q34.82 10.11 35.11 10.50L35.11 10.50L32.33 10.50L30.51 8.08L29.97 8.08L29.97 10.50L27.50 10.50L27.50 1.34L29.97 1.34L29.97 5.89L30.49 5.89L30.49 5.89Q30.49 5.89 30.63 5.70L30.63 5.70L30.63 5.70Q30.77 5.50 30.98 5.20L30.98 5.20L30.98 5.20Q31.18 4.90 31.42 4.56L31.42 4.56L31.42 4.56Q31.65 4.21 31.85 3.91L31.85 3.91L31.85 3.91Q32.05 3.61 32.19 3.42L32.19 3.42L32.19 3.42Q32.33 3.22 32.33 3.22L32.33 3.22L35.08 3.22ZM44.11 1.34L44.11 1.34L47.99 1.36L47.99 10.51L45.44 10.50L45.44 3.49L43.18 10.50L40.80 10.50L38.68 3.49L38.68 10.50L36.11 10.50L36.11 1.34L40.10 1.34L42.06 7.43L44.11 1.34ZM56.57 5.77L56.57 10.50L54.57 10.50L54.32 9.39L54.32 9.39Q53.87 10.05 53.33 10.35L53.33 10.35L53.33 10.35Q52.78 10.65 52.01 10.65L52.01 10.65L52.01 10.65Q51.46 10.65 50.97 10.52L50.97 10.52L50.97 10.52Q50.47 10.39 50.09 10.13L50.09 10.13L50.09 10.13Q49.71 9.87 49.49 9.48L49.49 9.48L49.49 9.48Q49.27 9.09 49.27 8.57L49.27 8.57L49.27 8.57Q49.25 7.87 49.47 7.39L49.47 7.39L49.47 7.39Q49.69 6.92 50.07 6.61L50.07 6.61L50.07 6.61Q50.46 6.30 50.96 6.13L50.96 6.13L50.96 6.13Q51.46 5.96 52.02 5.90L52.02 5.90L52.02 5.90Q52.57 5.84 53.14 5.84L53.14 5.84L53.14 5.84Q53.70 5.85 54.21 5.88L54.21 5.88L54.21 5.84L54.21 5.84Q54.21 5.29 53.92 5.03L53.92 5.03L53.92 5.03Q53.63 4.77 53.21 4.70L53.21 4.70L53.21 4.70Q52.78 4.63 52.27 4.71L52.27 4.71L52.27 4.71Q51.76 4.79 51.31 4.91L51.31 4.91L51.31 4.91Q50.86 5.04 50.54 5.17L50.54 5.17L50.54 5.17Q50.22 5.29 50.18 5.32L50.18 5.32L50.18 3.58L50.18 3.58Q50.19 3.57 50.45 3.49L50.45 3.49L50.45 3.49Q50.71 3.40 51.10 3.30L51.10 3.30L51.10 3.30Q51.49 3.21 51.97 3.12L51.97 3.12L51.97 3.12Q52.44 3.04 52.91 3.04L52.91 3.04L52.91 3.04Q53.37 3.04 54.00 3.15L54.00 3.15L54.00 3.15Q54.63 3.26 55.20 3.56L55.20 3.56L55.20 3.56Q55.78 3.86 56.17 4.40L56.17 4.40L56.17 4.40Q56.57 4.93 56.57 5.77L56.57 5.77ZM54.19 7.52L54.19 7.25L54.19 7.25Q53.73 7.25 53.28 7.26L53.28 7.26L53.28 7.26Q52.82 7.27 52.45 7.34L52.45 7.34L52.45 7.34Q52.08 7.42 51.86 7.61L51.86 7.61L51.86 7.61Q51.63 7.80 51.63 8.16L51.63 8.16L51.63 8.16Q51.63 8.55 51.87 8.77L51.87 8.77L51.87 8.77Q52.11 8.99 52.40 8.99L52.40 8.99L52.40 8.99Q52.79 8.99 53.12 8.88L53.12 8.88L53.12 8.88Q53.45 8.76 53.69 8.56L53.69 8.56L53.69 8.56Q53.93 8.36 54.06 8.09L54.06 8.09L54.06 8.09Q54.19 7.83 54.19 7.52L54.19 7.52ZM60.84 10.50L58.32 10.50L58.32 3.22L60.84 3.22L60.84 10.50ZM60.83 1.04L60.83 1.04L60.83 1.04Q60.83 1.30 60.73 1.53L60.73 1.53L60.73 1.53Q60.63 1.76 60.47 1.93L60.47 1.93L60.47 1.93Q60.30 2.10 60.07 2.20L60.07 2.20L60.07 2.20Q59.85 2.30 59.60 2.30L59.60 2.30L59.60 2.30Q59.07 2.30 58.70 1.93L58.70 1.93L58.70 1.93Q58.34 1.57 58.34 1.04L58.34 1.04L58.34 1.04Q58.34 0.78 58.44 0.56L58.44 0.56L58.44 0.56Q58.53 0.34 58.70 0.17L58.70 0.17L58.70 0.17Q58.87 0.01 59.10-0.08L59.10-0.08L59.10-0.08Q59.33-0.18 59.60-0.18L59.60-0.18L59.60-0.18Q60.10-0.18 60.47 0.17L60.47 0.17L60.47 0.17Q60.83 0.53 60.83 1.04ZM66.15 8.67L66.15 8.67L66.15 8.67Q66.21 8.67 66.37 8.68L66.37 8.68L66.37 8.68Q66.54 8.69 66.68 8.67L66.68 8.67L66.68 10.56L66.68 10.56Q66.49 10.60 66.29 10.62L66.29 10.62L66.29 10.62Q66.09 10.64 65.94 10.65L65.94 10.65L65.94 10.65Q65.76 10.67 65.58 10.65L65.58 10.65L65.58 10.65Q65.04 10.65 64.58 10.58L64.58 10.58L64.58 10.58Q64.11 10.50 63.75 10.23L63.75 10.23L63.75 10.23Q63.39 9.97 63.18 9.46L63.18 9.46L63.18 9.46Q62.97 8.96 62.97 8.09L62.97 8.09L62.97 1.55L65.49 1.55L65.49 8.04L65.49 8.04Q65.52 8.39 65.68 8.53L65.68 8.53L65.68 8.53Q65.84 8.67 66.15 8.67ZM72.39 10.65L72.39 10.65L72.39 10.65Q71.06 10.65 70.20 10.31L70.20 10.31L70.20 10.31Q69.33 9.97 68.82 9.43L68.82 9.43L68.82 9.43Q68.31 8.89 68.10 8.21L68.10 8.21L68.10 8.21Q67.90 7.53 67.90 6.86L67.90 6.86L67.90 6.86Q67.90 6.19 68.10 5.51L68.10 5.51L68.10 5.51Q68.31 4.83 68.76 4.28L68.76 4.28L68.76 4.28Q69.22 3.72 69.95 3.38L69.95 3.38L69.95 3.38Q70.69 3.04 71.74 3.04L71.74 3.04L71.74 3.04Q72.81 3.04 73.54 3.38L73.54 3.38L73.54 3.38Q74.27 3.72 74.70 4.28L74.70 4.28L74.70 4.28Q75.14 4.83 75.32 5.51L75.32 5.51L75.32 5.51Q75.50 6.19 75.50 6.86L75.50 6.86L75.50 7.56L70.46 7.56L70.46 7.56Q70.48 7.73 70.59 7.97L70.59 7.97L70.59 7.97Q70.71 8.22 70.97 8.44L70.97 8.44L70.97 8.44Q71.22 8.65 71.62 8.81L71.62 8.81L71.62 8.81Q72.02 8.96 72.59 8.96L72.59 8.96L72.59 8.96Q73.12 8.96 73.56 8.87L73.56 8.87L73.56 8.87Q74.00 8.78 74.31 8.67L74.31 8.67L74.31 8.67Q74.68 8.53 74.94 8.36L74.94 8.36L74.94 10.07L74.94 10.07Q74.94 10.08 74.73 10.17L74.73 10.17L74.73 10.17Q74.51 10.26 74.15 10.37L74.15 10.37L74.15 10.37Q73.79 10.47 73.33 10.56L73.33 10.56L73.33 10.56Q72.87 10.65 72.39 10.65ZM70.46 6.13L73.23 6.13L73.23 6.13Q73.23 5.89 73.16 5.63L73.16 5.63L73.16 5.63Q73.09 5.36 72.93 5.14L72.93 5.14L72.93 5.14Q72.76 4.91 72.49 4.77L72.49 4.77L72.49 4.77Q72.23 4.62 71.83 4.62L71.83 4.62L71.83 4.62Q71.44 4.62 71.18 4.77L71.18 4.77L71.18 4.77Q70.91 4.91 70.76 5.14L70.76 5.14L70.76 5.14Q70.60 5.36 70.53 5.63L70.53 5.63L70.53 5.63Q70.46 5.89 70.46 6.13L70.46 6.13ZM82.05 3.04L81.93 5.22L81.93 5.22Q81.12 5.04 80.61 5.24L80.61 5.24L80.61 5.24Q80.11 5.43 79.82 5.81L79.82 5.81L79.82 5.81Q79.53 6.19 79.43 6.64L79.43 6.64L79.43 6.64Q79.32 7.10 79.32 7.41L79.32 7.41L79.32 10.50L76.83 10.50L76.83 3.22L78.75 3.22L79.13 4.55L79.13 4.55Q79.13 4.55 79.25 4.31L79.25 4.31L79.25 4.31Q79.38 4.07 79.72 3.79L79.72 3.79L79.72 3.79Q80.05 3.51 80.62 3.28L80.62 3.28L80.62 3.28Q81.19 3.04 82.05 3.04L82.05 3.04Z"></path></g><defs data-v-423bf9ae=""><linearGradient data-v-423bf9ae="" gradientTransform="rotate(25)" id="06703e86-3d12-419d-868f-64be0745c76a" x1="0%" y1="0%" x2="100%" y2="0%"><stop data-v-423bf9ae="" offset="0%" style="stop-color: rgb(208, 233, 13); stop-opacity: 1;"></stop><stop data-v-423bf9ae="" offset="100%" style="stop-color: rgb(21, 54, 241); stop-opacity: 1;"></stop></linearGradient></defs><g data-v-423bf9ae="" id="64c69b8f-08c1-4379-b74d-eaf45dc4db5e" transform="matrix(1.0857518911361694,0,0,1.0857518911361694,0.032156627625226974,-1.1464179754257202)" stroke="none" fill="url(#06703e86-3d12-419d-868f-64be0745c76a)"><path d="M89.222 32.368c-3.09-2.343-2.549 10.643-19.604 12.638-7.823.915-14.457-.505-20.066-2.389 6.137-4.041 10.192-10.982 10.192-18.878 0-12.48-10.116-22.598-22.597-22.598-10.894 0-19.981 7.707-22.119 17.964C6.902 17.397.32 15.875.32 22.847c0 6.481 9.652 12.936 19.916 16.83C9.551 44.448 2.099 55.16 2.099 67.618c0 16.895 13.79 28.836 30.593 30.592 23.859 2.494 52.163-1.592 62.851-23.055 7.645-15.351 4.211-34.805-6.321-42.787z"></path></g><!----></svg>